<?xml version="1.0" encoding="UTF-8"?>
<!DOCTYPE svg PUBLIC "-//W3C//DTD SVG 1.1//EN" "http://www.w3.org/Graphics/SVG/1.1/DTD/svg11.dtd">
<svg xmlns="http://www.w3.org/2000/svg" version="1.1" width="496px" height="512px" style="shape-rendering:geometricPrecision; text-rendering:geometricPrecision; image-rendering:optimizeQuality; fill-rule:evenodd; clip-rule:evenodd" xmlns:xlink="http://www.w3.org/1999/xlink">
<g><path style="opacity:0.995" fill="#241d34" d="M 495.5,232.5 C 495.5,247.5 495.5,262.5 495.5,277.5C 484.938,363.491 442.605,428.658 368.5,473C 308.731,504.711 246.064,512.044 180.5,495C 95.7616,468.595 38.9283,413.428 10,329.5C 5.12871,312.64 1.62871,295.64 -0.5,278.5C -0.5,263.167 -0.5,247.833 -0.5,232.5C 9.25418,151.299 48.2542,88.4656 116.5,44C 185.397,3.74345 257.731,-3.58988 333.5,22C 408.624,51.7903 459.124,104.957 485,181.5C 489.871,198.36 493.371,215.36 495.5,232.5 Z"/></g>
<g><path style="opacity:1" fill="#fefffe" d="M 343.5,157.5 C 355.957,155.626 362.29,160.96 362.5,173.5C 354.576,235.465 344.743,297.132 333,358.5C 331.538,365.591 328.372,371.758 323.5,377C 318.029,379.976 312.362,380.31 306.5,378C 302.52,376.034 298.52,374.034 294.5,372C 269.673,354.753 244.673,337.753 219.5,321C 214.883,317.727 211.883,313.394 210.5,308C 211.327,304.512 212.827,301.346 215,298.5C 241.97,273.197 268.637,247.531 295,221.5C 298.835,214.366 296.668,211.532 288.5,213C 252.662,236.418 216.995,260.085 181.5,284C 174.658,288.503 167.158,291.003 159,291.5C 138.591,288.106 118.758,282.606 99.5,275C 92.4468,271.19 91.7801,266.523 97.5,261C 169.438,228.032 242.105,196.699 315.5,167C 324.846,163.496 334.18,160.33 343.5,157.5 Z"/></g>
</svg>
